<svg xmlns="http://www.w3.org/2000/svg" viewBox="0 0 960 340" width="960" height="340" font-family="Segoe UI, Helvetica, Arial, sans-serif"><defs><marker id="ah" markerWidth="9" markerHeight="9" refX="7" refY="3" orient="auto" markerUnits="strokeWidth"><path d="M0,0 L7,3 L0,6 Z" fill="#64748b"/></marker></defs><rect x="0.5" y="0.5" width="959" height="339" rx="12" fill="#ffffff" stroke="#e2e8f0"/><text x="480.0" y="30" text-anchor="middle" font-size="18" font-weight="700" fill="#0f172a">AI analysis — manual, multi-provider</text><rect x="30" y="70" width="250" height="150" rx="6" fill="#ffffff" stroke="#cbd5e1"/><text x="42" y="90" font-size="11.5" font-weight="700" fill="#7e22ce">Recon Hound: AI analysis</text><text x="50" y="110" font-size="11" fill="#0f172a">Analyze selected text</text><text x="50" y="132" font-size="11" fill="#0f172a">Selected text: chaining</text><text x="50" y="154" font-size="11" fill="#0f172a">Explain req/resp &amp; surface</text><text x="50" y="176" font-size="11" fill="#0f172a">Find vulnerabilities</text><text x="50" y="198" font-size="11" fill="#0f172a">Suggest exploitation &amp; chaining</text><line x1="280" y1="145" x2="360" y2="145" stroke="#64748b" stroke-width="1.7" marker-end="url(#ah)"/><rect x="302.4" y="127.0" width="35.2" height="16" rx="4" fill="#ffffff" opacity="0.9"/><text x="320.0" y="138.0" text-anchor="middle" font-size="10.5" fill="#475569">send</text><rect x="360" y="100" width="200" height="96" rx="9" fill="#f5ecfe" stroke="#7e22ce" stroke-width="1.6"/><text x="460.0" y="124.0" text-anchor="middle" dominant-baseline="middle" font-size="12.5" font-weight="700" fill="#0f172a">AI analysis tab</text><text x="460.0" y="140.0" text-anchor="middle" dominant-baseline="middle" font-size="10.5" font-weight="400" fill="#475569">provider · model</text><text x="460.0" y="156.0" text-anchor="middle" dominant-baseline="middle" font-size="10.5" font-weight="400" fill="#475569">key: field or $ENV</text><text x="460.0" y="172.0" text-anchor="middle" dominant-baseline="middle" font-size="10" font-weight="400" fill="#c2410c">in-memory, not saved</text><rect x="660" y="74" width="260" height="44" rx="9" fill="#f1f5f9" stroke="#64748b" stroke-width="1.6"/><text x="790.0" y="96.0" text-anchor="middle" dominant-baseline="middle" font-size="12" font-weight="700" fill="#0f172a">Anthropic (Claude)</text><line x1="560" y1="148" x2="660" y2="96" stroke="#64748b" stroke-width="1.7" marker-end="url(#ah)" stroke-dasharray="5,4"/><rect x="660" y="130" width="260" height="44" rx="9" fill="#f1f5f9" stroke="#64748b" stroke-width="1.6"/><text x="790.0" y="152.0" text-anchor="middle" dominant-baseline="middle" font-size="12" font-weight="700" fill="#0f172a">OpenAI</text><line x1="560" y1="148" x2="660" y2="152" stroke="#64748b" stroke-width="1.7" marker-end="url(#ah)" stroke-dasharray="5,4"/><rect x="660" y="186" width="260" height="44" rx="9" fill="#f1f5f9" stroke="#64748b" stroke-width="1.6"/><text x="790.0" y="208.0" text-anchor="middle" dominant-baseline="middle" font-size="12" font-weight="700" fill="#0f172a">xAI (Grok)</text><line x1="560" y1="148" x2="660" y2="208" stroke="#64748b" stroke-width="1.7" marker-end="url(#ah)" stroke-dasharray="5,4"/><rect x="660" y="242" width="260" height="44" rx="9" fill="#f1f5f9" stroke="#64748b" stroke-width="1.6"/><text x="790.0" y="264.0" text-anchor="middle" dominant-baseline="middle" font-size="12" font-weight="700" fill="#0f172a">Gemini</text><line x1="560" y1="148" x2="660" y2="264" stroke="#64748b" stroke-width="1.7" marker-end="url(#ah)" stroke-dasharray="5,4"/><rect x="360" y="236" width="200" height="70" rx="9" fill="#e7f6ec" stroke="#15803d" stroke-width="1.6"/><text x="460.0" y="263.0" text-anchor="middle" dominant-baseline="middle" font-size="12" font-weight="700" fill="#0f172a">Analysis / exploit chains</text><text x="460.0" y="279.0" text-anchor="middle" dominant-baseline="middle" font-size="10.5" font-weight="400" fill="#475569">(verify manually)</text><line x1="460" y1="196" x2="460" y2="236" stroke="#64748b" stroke-width="1.7" marker-end="url(#ah)"/><text x="30" y="328" font-size="11" fill="#475569" font-style="italic">Direct HTTPS (not via Burp) — keys never enter proxy history or the secret scanner. Nothing sent until you click.</text></svg>