<svg xmlns="http://www.w3.org/2000/svg" viewBox="0 0 960 452" width="960" height="452" font-family="Segoe UI, Helvetica, Arial, sans-serif"><defs><marker id="ah" markerWidth="9" markerHeight="9" refX="7" refY="3" orient="auto" markerUnits="strokeWidth"><path d="M0,0 L7,3 L0,6 Z" fill="#64748b"/></marker></defs><rect x="0.5" y="0.5" width="959" height="451" rx="12" fill="#ffffff" stroke="#e2e8f0"/><text x="480.0" y="30" text-anchor="middle" font-size="18" font-weight="700" fill="#0f172a">Capability map</text><rect x="20" y="54" width="220" height="34" rx="8" fill="#1a56db"/><text x="130.0" y="76" text-anchor="middle" font-size="14" font-weight="800" fill="#ffffff">DISCOVER</text><rect x="20" y="98" width="220" height="42" rx="7" fill="#e8f0fe" stroke="#1a56db" stroke-width="1.2"/><text x="32" y="123" font-size="11.5" font-weight="600" fill="#0f172a">Crawl + redirect chains</text><rect x="20" y="146" width="220" height="42" rx="7" fill="#e8f0fe" stroke="#1a56db" stroke-width="1.2"/><text x="32" y="171" font-size="11.5" font-weight="600" fill="#0f172a">Webpack chunk rebuild</text><rect x="20" y="194" width="220" height="42" rx="7" fill="#e8f0fe" stroke="#1a56db" stroke-width="1.2"/><text x="32" y="219" font-size="11.5" font-weight="600" fill="#0f172a">Source-map mining</text><rect x="20" y="242" width="220" height="42" rx="7" fill="#e8f0fe" stroke="#1a56db" stroke-width="1.2"/><text x="32" y="267" font-size="11.5" font-weight="600" fill="#0f172a">OpenAPI / GraphQL ingest</text><rect x="20" y="290" width="220" height="42" rx="7" fill="#e8f0fe" stroke="#1a56db" stroke-width="1.2"/><text x="32" y="315" font-size="11.5" font-weight="600" fill="#0f172a">crt.sh subdomains</text><rect x="20" y="338" width="220" height="42" rx="7" fill="#e8f0fe" stroke="#1a56db" stroke-width="1.2"/><text x="32" y="363" font-size="11.5" font-weight="600" fill="#0f172a">Arjun param discovery</text><rect x="20" y="386" width="220" height="42" rx="7" fill="#e8f0fe" stroke="#1a56db" stroke-width="1.2"/><text x="32" y="411" font-size="11.5" font-weight="600" fill="#0f172a">Host / IP aggregation</text><rect x="253.33333333333334" y="54" width="220" height="34" rx="8" fill="#1a56db"/><text x="363.33333333333337" y="76" text-anchor="middle" font-size="14" font-weight="800" fill="#ffffff">DETECT</text><rect x="253.33333333333334" y="98" width="220" height="42" rx="7" fill="#e8f0fe" stroke="#1a56db" stroke-width="1.2"/><text x="265.33333333333337" y="123" font-size="11.5" font-weight="600" fill="#0f172a">Secrets (RegexHound + gf)</text><rect x="253.33333333333334" y="146" width="220" height="42" rx="7" fill="#e8f0fe" stroke="#1a56db" stroke-width="1.2"/><text x="265.33333333333337" y="171" font-size="11.5" font-weight="600" fill="#0f172a">SCA — vulnerable libs</text><rect x="253.33333333333334" y="194" width="220" height="42" rx="7" fill="#e8f0fe" stroke="#1a56db" stroke-width="1.2"/><text x="265.33333333333337" y="219" font-size="11.5" font-weight="600" fill="#0f172a">Reflected-XSS surface</text><rect x="253.33333333333334" y="242" width="220" height="42" rx="7" fill="#e8f0fe" stroke="#1a56db" stroke-width="1.2"/><text x="265.33333333333337" y="267" font-size="11.5" font-weight="600" fill="#0f172a">DOM-XSS source to sink</text><rect x="253.33333333333334" y="290" width="220" height="42" rx="7" fill="#e8f0fe" stroke="#1a56db" stroke-width="1.2"/><text x="265.33333333333337" y="315" font-size="11.5" font-weight="600" fill="#0f172a">CORS / CSP / JWT hygiene</text><rect x="253.33333333333334" y="338" width="220" height="42" rx="7" fill="#e8f0fe" stroke="#1a56db" stroke-width="1.2"/><text x="265.33333333333337" y="363" font-size="11.5" font-weight="600" fill="#0f172a">Disclosure signals</text><rect x="253.33333333333334" y="386" width="220" height="42" rx="7" fill="#e8f0fe" stroke="#1a56db" stroke-width="1.2"/><text x="265.33333333333337" y="411" font-size="11.5" font-weight="600" fill="#0f172a">Exposed source maps</text><rect x="486.6666666666667" y="54" width="220" height="34" rx="8" fill="#c2410c"/><text x="596.6666666666667" y="76" text-anchor="middle" font-size="14" font-weight="800" fill="#ffffff">EXPLOIT</text><rect x="486.6666666666667" y="98" width="220" height="42" rx="7" fill="#fff1e6" stroke="#c2410c" stroke-width="1.2"/><text x="498.6666666666667" y="123" font-size="11.5" font-weight="600" fill="#0f172a">SSRF / SSTI / XSS (OOB)</text><rect x="486.6666666666667" y="146" width="220" height="42" rx="7" fill="#fff1e6" stroke="#c2410c" stroke-width="1.2"/><text x="498.6666666666667" y="171" font-size="11.5" font-weight="600" fill="#0f172a">Access-control / IDOR</text><rect x="486.6666666666667" y="194" width="220" height="42" rx="7" fill="#fff1e6" stroke="#c2410c" stroke-width="1.2"/><text x="498.6666666666667" y="219" font-size="11.5" font-weight="600" fill="#0f172a">JWT alg:none + forgery</text><rect x="486.6666666666667" y="242" width="220" height="42" rx="7" fill="#fff1e6" stroke="#c2410c" stroke-width="1.2"/><text x="498.6666666666667" y="267" font-size="11.5" font-weight="600" fill="#0f172a">GraphQL fuzzing</text><rect x="486.6666666666667" y="290" width="220" height="42" rx="7" fill="#fff1e6" stroke="#c2410c" stroke-width="1.2"/><text x="498.6666666666667" y="315" font-size="11.5" font-weight="600" fill="#0f172a">Subdomain takeover</text><rect x="486.6666666666667" y="338" width="220" height="42" rx="7" fill="#fff1e6" stroke="#c2410c" stroke-width="1.2"/><text x="498.6666666666667" y="363" font-size="11.5" font-weight="600" fill="#0f172a">Open-redirect / CRLF</text><rect x="486.6666666666667" y="386" width="220" height="42" rx="7" fill="#fff1e6" stroke="#c2410c" stroke-width="1.2"/><text x="498.6666666666667" y="411" font-size="11.5" font-weight="600" fill="#0f172a">LLM PoC + exploit chains</text><rect x="720.0" y="54" width="220" height="34" rx="8" fill="#15803d"/><text x="830.0" y="76" text-anchor="middle" font-size="14" font-weight="800" fill="#ffffff">OPERATE</text><rect x="720.0" y="98" width="220" height="42" rx="7" fill="#e7f6ec" stroke="#15803d" stroke-width="1.2"/><text x="732.0" y="123" font-size="11.5" font-weight="600" fill="#0f172a">Native Burp issues</text><rect x="720.0" y="146" width="220" height="42" rx="7" fill="#e7f6ec" stroke="#15803d" stroke-width="1.2"/><text x="732.0" y="171" font-size="11.5" font-weight="600" fill="#0f172a">Passive ScanCheck</text><rect x="720.0" y="194" width="220" height="42" rx="7" fill="#e7f6ec" stroke="#15803d" stroke-width="1.2"/><text x="732.0" y="219" font-size="11.5" font-weight="600" fill="#0f172a">SARIF + Markdown export</text><rect x="720.0" y="242" width="220" height="42" rx="7" fill="#e7f6ec" stroke="#15803d" stroke-width="1.2"/><text x="732.0" y="267" font-size="11.5" font-weight="600" fill="#0f172a">Project persistence</text><rect x="720.0" y="290" width="220" height="42" rx="7" fill="#e7f6ec" stroke="#15803d" stroke-width="1.2"/><text x="732.0" y="315" font-size="11.5" font-weight="600" fill="#0f172a">Headless CI scanner</text><rect x="720.0" y="338" width="220" height="42" rx="7" fill="#e7f6ec" stroke="#15803d" stroke-width="1.2"/><text x="732.0" y="363" font-size="11.5" font-weight="600" fill="#0f172a">Multi-LLM analysis</text><rect x="720.0" y="386" width="220" height="42" rx="7" fill="#e7f6ec" stroke="#15803d" stroke-width="1.2"/><text x="732.0" y="411" font-size="11.5" font-weight="600" fill="#0f172a">Nuclei AI templates + PDCP</text><text x="20" y="438" font-size="11" fill="#475569" font-style="italic">Passive detection runs continuously and via a native ScanCheck; active exploitation is a per-target opt-in.</text></svg>