<svg xmlns="http://www.w3.org/2000/svg" viewBox="0 0 960 250" width="960" height="250" font-family="Segoe UI, Helvetica, Arial, sans-serif"><defs><linearGradient id="g" x1="0" y1="0" x2="1" y2="1"><stop offset="0" stop-color="#f97316"/><stop offset="0.5" stop-color="#db2777"/><stop offset="1" stop-color="#7e22ce"/></linearGradient></defs><rect x="0" y="0" width="960" height="250" rx="14" fill="#0b1220"/><rect x="0" y="0" width="960" height="7" rx="3" fill="url(#g)"/><text x="40" y="98" font-size="54" font-weight="800" fill="#f8fafc" letter-spacing="1.5">RECON HOUND</text><text x="44" y="130" font-size="15.5" fill="#94a3b8">Offensive recon &amp; vulnerability toolkit for Burp Suite &#8212; Montoya &#183; Java 21</text><text x="920" y="42" text-anchor="end" font-size="12" font-weight="600" fill="#f97316">every finding &#8594; native Burp issues</text><rect x="42" y="162" width="124.0" height="27" rx="13" fill="#111c30" stroke="#1a56db" stroke-width="1.5"/><text x="104.0" y="180" text-anchor="middle" font-size="12" font-weight="600" fill="#e2e8f0">Passive engine</text><rect x="176.0" y="162" width="117.0" height="27" rx="13" fill="#111c30" stroke="#c2410c" stroke-width="1.5"/><text x="234.5" y="180" text-anchor="middle" font-size="12" font-weight="600" fill="#e2e8f0">Active opt-in</text><rect x="303.0" y="162" width="110.0" height="27" rx="13" fill="#111c30" stroke="#7e22ce" stroke-width="1.5"/><text x="358.0" y="180" text-anchor="middle" font-size="12" font-weight="600" fill="#e2e8f0">LLM bug-hunt</text><rect x="423.0" y="162" width="117.0" height="27" rx="13" fill="#111c30" stroke="#7e22ce" stroke-width="1.5"/><text x="481.5" y="180" text-anchor="middle" font-size="12" font-weight="600" fill="#e2e8f0">Nuclei + PDCP</text><rect x="550.0" y="162" width="138.0" height="27" rx="13" fill="#111c30" stroke="#7e22ce" stroke-width="1.5"/><text x="619.0" y="180" text-anchor="middle" font-size="12" font-weight="600" fill="#e2e8f0">Exploit chaining</text><rect x="698.0" y="162" width="47.0" height="27" rx="13" fill="#111c30" stroke="#1a56db" stroke-width="1.5"/><text x="721.5" y="180" text-anchor="middle" font-size="12" font-weight="600" fill="#e2e8f0">SCA</text><rect x="755.0" y="162" width="103.0" height="27" rx="13" fill="#111c30" stroke="#c2410c" stroke-width="1.5"/><text x="806.5" y="180" text-anchor="middle" font-size="12" font-weight="600" fill="#e2e8f0">JWT attacks</text><rect x="42" y="196" width="75.0" height="27" rx="13" fill="#111c30" stroke="#1a56db" stroke-width="1.5"/><text x="79.5" y="214" text-anchor="middle" font-size="12" font-weight="600" fill="#e2e8f0">DOM-XSS</text><rect x="127.0" y="196" width="152.0" height="27" rx="13" fill="#111c30" stroke="#c2410c" stroke-width="1.5"/><text x="203.0" y="214" text-anchor="middle" font-size="12" font-weight="600" fill="#e2e8f0">Subdomain takeover</text><rect x="289.0" y="196" width="96.0" height="27" rx="13" fill="#111c30" stroke="#15803d" stroke-width="1.5"/><text x="337.0" y="214" text-anchor="middle" font-size="12" font-weight="600" fill="#e2e8f0">SARIF / CI</text></svg>