<svg xmlns="http://www.w3.org/2000/svg" viewBox="0 0 960 280" width="960" height="280" font-family="Segoe UI, Helvetica, Arial, sans-serif"><defs><marker id="ah" markerWidth="9" markerHeight="9" refX="7" refY="3" orient="auto" markerUnits="strokeWidth"><path d="M0,0 L7,3 L0,6 Z" fill="#64748b"/></marker></defs><rect x="0.5" y="0.5" width="959" height="279" rx="12" fill="#ffffff" stroke="#e2e8f0"/><text x="480.0" y="30" text-anchor="middle" font-size="18" font-weight="700" fill="#0f172a">Reporting — where findings surface</text><rect x="360" y="110" width="220" height="80" rx="9" fill="#f1f5f9" stroke="#64748b" stroke-width="1.6"/><text x="470.0" y="134.0" text-anchor="middle" dominant-baseline="middle" font-size="13" font-weight="700" fill="#0f172a">Finding</text><text x="470.0" y="150.0" text-anchor="middle" dominant-baseline="middle" font-size="10.5" font-weight="400" fill="#475569">secret · signal · reflection</text><text x="470.0" y="166.0" text-anchor="middle" dominant-baseline="middle" font-size="10.5" font-weight="400" fill="#475569">active / OOB confirmation</text><rect x="30" y="70" width="250" height="60" rx="9" fill="#e8f0fe" stroke="#1a56db" stroke-width="1.6"/><text x="155.0" y="92.0" text-anchor="middle" dominant-baseline="middle" font-size="12.5" font-weight="700" fill="#0f172a">Suite-tab tables</text><text x="155.0" y="108.0" text-anchor="middle" dominant-baseline="middle" font-size="10" font-weight="400" fill="#475569">Findings · Reflections · Active · Assets</text><rect x="30" y="150" width="250" height="60" rx="9" fill="#e7f6ec" stroke="#15803d" stroke-width="1.6"/><text x="155.0" y="172.0" text-anchor="middle" dominant-baseline="middle" font-size="12.5" font-weight="700" fill="#0f172a">Burp audit issues</text><text x="155.0" y="188.0" text-anchor="middle" dominant-baseline="middle" font-size="10" font-weight="400" fill="#475569">Dashboard / Target</text><rect x="680" y="70" width="250" height="60" rx="9" fill="#f1f5f9" stroke="#64748b" stroke-width="1.6"/><text x="805.0" y="92.0" text-anchor="middle" dominant-baseline="middle" font-size="12.5" font-weight="700" fill="#0f172a">Extension log</text><text x="805.0" y="108.0" text-anchor="middle" dominant-baseline="middle" font-size="10" font-weight="400" fill="#475569">output / error</text><rect x="680" y="150" width="250" height="60" rx="9" fill="#fff1e6" stroke="#c2410c" stroke-width="1.6"/><text x="805.0" y="172.0" text-anchor="middle" dominant-baseline="middle" font-size="12.5" font-weight="700" fill="#0f172a">Collaborator OOB</text><text x="805.0" y="188.0" text-anchor="middle" dominant-baseline="middle" font-size="10" font-weight="400" fill="#c2410c">HIGH issue, async</text><line x1="360" y1="135" x2="280" y2="100" stroke="#64748b" stroke-width="1.7" marker-end="url(#ah)"/><line x1="360" y1="165" x2="280" y2="180" stroke="#64748b" stroke-width="1.7" marker-end="url(#ah)"/><line x1="580" y1="135" x2="680" y2="100" stroke="#64748b" stroke-width="1.7" marker-end="url(#ah)"/><line x1="580" y1="165" x2="680" y2="180" stroke="#64748b" stroke-width="1.7" marker-end="url(#ah)"/></svg>