<svg xmlns="http://www.w3.org/2000/svg" viewBox="0 0 960 380" width="960" height="380" font-family="Segoe UI, Helvetica, Arial, sans-serif"><defs><marker id="ah" markerWidth="9" markerHeight="9" refX="7" refY="3" orient="auto" markerUnits="strokeWidth"><path d="M0,0 L7,3 L0,6 Z" fill="#64748b"/></marker></defs><rect x="0.5" y="0.5" width="959" height="379" rx="12" fill="#ffffff" stroke="#e2e8f0"/><text x="480.0" y="30" text-anchor="middle" font-size="18" font-weight="700" fill="#0f172a">Suite tab — Recon Hound</text><rect x="20" y="50" width="920" height="310" rx="8" fill="#f8fafc" stroke="#cbd5e1"/><rect x="30" y="62" width="75.6" height="26" rx="6" fill="#e2e8f0" stroke="#cbd5e1" stroke-width="1"/><text x="67.8" y="79" text-anchor="middle" font-size="11.5" font-weight="400" fill="#475569">Findings</text><rect x="111.6" y="62" width="90.0" height="26" rx="6" fill="#e2e8f0" stroke="#cbd5e1" stroke-width="1"/><text x="156.6" y="79" text-anchor="middle" font-size="11.5" font-weight="400" fill="#475569">Discovered</text><rect x="207.6" y="62" width="111.60000000000001" height="26" rx="6" fill="#e2e8f0" stroke="#cbd5e1" stroke-width="1"/><text x="263.4" y="79" text-anchor="middle" font-size="11.5" font-weight="400" fill="#475569">Insertion pts</text><rect x="325.2" y="62" width="126.0" height="26" rx="6" fill="#e2e8f0" stroke="#cbd5e1" stroke-width="1"/><text x="388.2" y="79" text-anchor="middle" font-size="11.5" font-weight="400" fill="#475569">XSS reflections</text><rect x="457.2" y="62" width="104.4" height="26" rx="6" fill="#ffffff" stroke="#c2410c" stroke-width="1.8"/><text x="509.4" y="79" text-anchor="middle" font-size="11.5" font-weight="700" fill="#0f172a">Active tests</text><rect x="567.6" y="62" width="97.2" height="26" rx="6" fill="#e2e8f0" stroke="#cbd5e1" stroke-width="1"/><text x="616.2" y="79" text-anchor="middle" font-size="11.5" font-weight="400" fill="#475569">Hosts / IPs</text><rect x="670.8000000000001" y="62" width="97.2" height="26" rx="6" fill="#e2e8f0" stroke="#cbd5e1" stroke-width="1"/><text x="719.4000000000001" y="79" text-anchor="middle" font-size="11.5" font-weight="400" fill="#475569">XSS vectors</text><rect x="774.0000000000001" y="62" width="97.2" height="26" rx="6" fill="#e2e8f0" stroke="#cbd5e1" stroke-width="1"/><text x="822.6000000000001" y="79" text-anchor="middle" font-size="11.5" font-weight="400" fill="#475569">AI analysis</text><rect x="32" y="100" width="896" height="86" rx="6" fill="#ffffff" stroke="#e2e8f0"/><rect x="46" y="114" width="12" height="12" rx="2" fill="#e8f0fe" stroke="#1a56db"/><path d="M48,120 L51,123 L56,116" fill="none" stroke="#1a56db" stroke-width="1.6"/><text x="64" y="124" font-size="11.5" fill="#0f172a">Auto-loop</text><rect x="149" y="114" width="12" height="12" rx="2" fill="#e8f0fe" stroke="#1a56db"/><path d="M151,120 L154,123 L159,116" fill="none" stroke="#1a56db" stroke-width="1.6"/><text x="167" y="124" font-size="11.5" fill="#0f172a">Add to scope</text><rect x="273" y="114" width="12" height="12" rx="2" fill="#e8f0fe" stroke="#1a56db"/><path d="M275,120 L278,123 L283,116" fill="none" stroke="#1a56db" stroke-width="1.6"/><text x="291" y="124" font-size="11.5" fill="#0f172a">Same-origin</text><rect x="390" y="114" width="12" height="12" rx="2" fill="#e8f0fe" stroke="#1a56db"/><path d="M392,120 L395,123 L400,116" fill="none" stroke="#1a56db" stroke-width="1.6"/><text x="408" y="124" font-size="11.5" fill="#0f172a">Follow redirects</text><rect x="542" y="114" width="12" height="12" rx="2" fill="#e8f0fe" stroke="#1a56db"/><path d="M544,120 L547,123 L552,116" fill="none" stroke="#1a56db" stroke-width="1.6"/><text x="560" y="124" font-size="11.5" fill="#0f172a">gf patterns</text><rect x="659" y="114" width="12" height="12" rx="2" fill="#e8f0fe" stroke="#1a56db"/><path d="M661,120 L664,123 L669,116" fill="none" stroke="#1a56db" stroke-width="1.6"/><text x="677" y="124" font-size="11.5" fill="#0f172a">Detect reflections</text><rect x="46" y="140" width="14" height="14" rx="2" fill="#fff" stroke="#c2410c" stroke-width="1.6"/><text x="66" y="151" font-size="11.5" font-weight="700" fill="#c2410c">Enable active tests (opt-in — authorized targets only)</text><text x="430" y="151" font-size="11.5" fill="#475569">crt.sh · Arjun · Collaborator SSRF/SSTI/XSS · access-control</text><text x="46" y="175" font-size="11" fill="#475569">Status: Running | Queue 12 | Discovered 480 | Findings 23 | Reflections 6 | Active 4 | Assets 91</text><rect x="32" y="198" width="896" height="150" rx="6" fill="#ffffff" stroke="#e2e8f0"/><rect x="34" y="200" width="892" height="24" fill="#f1f5f9"/><text x="40" y="216" font-size="11.5" font-weight="700" fill="#0f172a">Severity</text><text x="120" y="216" font-size="11.5" font-weight="700" fill="#0f172a">Provider</text><text x="210" y="216" font-size="11.5" font-weight="700" fill="#0f172a">Rule</text><text x="380" y="216" font-size="11.5" font-weight="700" fill="#0f172a">Location</text><text x="490" y="216" font-size="11.5" font-weight="700" fill="#0f172a">Value</text><text x="690" y="216" font-size="11.5" font-weight="700" fill="#0f172a">URL</text><text x="40" y="244" font-size="11" font-weight="700" fill="#b91c1c">HIGH</text><text x="120" y="244" font-size="11" font-weight="400" fill="#0f172a">aws</text><text x="210" y="244" font-size="11" font-weight="400" fill="#0f172a">AWS secret access key</text><text x="380" y="244" font-size="11" font-weight="400" fill="#0f172a">response</text><text x="490" y="244" font-size="11" font-weight="400" fill="#0f172a">wJalr…3n4K</text><text x="690" y="244" font-size="11" font-weight="400" fill="#0f172a">/static/app.js</text><text x="40" y="270" font-size="11" font-weight="700" fill="#c2410c">MEDIUM</text><text x="120" y="270" font-size="11" font-weight="400" fill="#0f172a">hygiene</text><text x="210" y="270" font-size="11" font-weight="400" fill="#0f172a">CORS reflects Origin</text><text x="380" y="270" font-size="11" font-weight="400" fill="#0f172a">response</text><text x="490" y="270" font-size="11" font-weight="400" fill="#0f172a">ACAO=Origin;creds</text><text x="690" y="270" font-size="11" font-weight="400" fill="#0f172a">/api/me</text><text x="40" y="296" font-size="11" font-weight="700" fill="#b91c1c">HIGH</text><text x="120" y="296" font-size="11" font-weight="400" fill="#0f172a">response</text><text x="210" y="296" font-size="11" font-weight="400" fill="#0f172a">Possible stack trace</text><text x="380" y="296" font-size="11" font-weight="400" fill="#0f172a">response</text><text x="490" y="296" font-size="11" font-weight="400" fill="#0f172a">Traceback (most…</text><text x="690" y="296" font-size="11" font-weight="400" fill="#0f172a">/debug</text><text x="40" y="322" font-size="11" font-weight="700" fill="#475569">INFO</text><text x="120" y="322" font-size="11" font-weight="400" fill="#0f172a">sourcemap</text><text x="210" y="322" font-size="11" font-weight="400" fill="#0f172a">Source map exposed</text><text x="380" y="322" font-size="11" font-weight="400" fill="#0f172a">response</text><text x="490" y="322" font-size="11" font-weight="400" fill="#0f172a">42 files recoverable</text><text x="690" y="322" font-size="11" font-weight="400" fill="#0f172a">/app.js.map</text></svg>